<?xml version="1.0" standalone="no"?>
<!DOCTYPE svg PUBLIC "-//W3C//DTD SVG 20010904//EN"
 "http://www.w3.org/TR/2001/REC-SVG-20010904/DTD/svg10.dtd">
<svg version="1.0" xmlns="http://www.w3.org/2000/svg"
 width="157.000000pt" height="157.000000pt" viewBox="0 0 157.000000 157.000000"
 preserveAspectRatio="xMidYMid meet">

<g transform="translate(0.000000,157.000000) scale(0.100000,-0.100000)"
fill="#000000" stroke="none">
<path d="M484 1405 c-164 -79 -311 -151 -327 -159 l-27 -15 0 -541 0 -540 -35
0 c-31 0 -35 -3 -35 -25 l0 -25 725 0 725 0 0 25 c0 23 -4 25 -40 25 -22 0
-40 5 -40 10 0 6 11 10 25 10 l25 0 0 102 c0 92 -3 110 -37 200 l-36 98 -104
0 -103 0 0 -95 c0 -57 -4 -95 -10 -95 -6 0 -10 62 -10 165 l0 165 -185 0 -185
0 0 -165 0 -165 -35 0 -35 0 0 -105 0 -105 34 0 c19 0 38 -4 41 -10 4 -6 -36
-10 -114 -10 l-121 0 -2 163 -3 162 -117 3 -118 3 0 149 0 150 445 0 445 0 0
-95 c0 -88 1 -95 20 -95 19 0 20 7 20 210 l0 210 -485 0 -485 0 0 -264 0 -265
-48 -3 -47 -3 -3 -162 c-1 -98 -6 -163 -12 -163 -6 0 -10 192 -10 528 l0 529
303 145 302 145 293 -146 292 -146 0 -307 c0 -301 0 -308 20 -308 20 0 20 7
20 323 l0 322 -314 157 -313 157 -299 -144z m746 -465 c0 -20 -7 -20 -445 -20
-438 0 -445 0 -445 20 0 20 7 20 445 20 438 0 445 0 445 -20z m0 -90 c0 -20
-7 -20 -445 -20 -438 0 -445 0 -445 20 0 20 7 20 445 20 438 0 445 0 445 -20z
m-308 -247 l3 -58 69 0 69 0 0 58 -1 57 34 0 34 0 0 -140 0 -141 -136 3 -135
3 -2 138 -2 137 32 0 c32 0 32 0 35 -57z m98 22 c0 -31 -3 -35 -25 -35 -22 0
-25 4 -25 35 0 31 3 35 25 35 22 0 25 -4 25 -35z m360 -115 c0 -5 -22 -10 -50
-10 -57 0 -64 -11 -58 -91 l3 -44 83 -3 82 -3 0 -72 c-1 -65 -2 -70 -14 -48
-16 29 -52 50 -87 51 -30 0 -79 -34 -79 -56 0 -11 -24 -14 -129 -14 l-129 0
-35 35 c-26 26 -44 35 -67 35 -24 0 -41 -9 -66 -35 -18 -19 -36 -35 -41 -35
-4 0 -6 27 -5 60 l4 60 229 0 229 0 0 90 0 90 65 0 c37 0 65 -4 65 -10z m28
-82 c3 -15 -4 -18 -42 -18 -40 0 -46 3 -46 21 0 18 5 20 42 17 31 -2 44 -8 46
-20z m-1088 -58 l0 -60 70 0 70 0 0 60 0 60 35 0 35 0 0 -140 0 -140 -140 0
-140 0 0 140 0 140 35 0 35 0 0 -60z m90 25 c0 -28 -4 -35 -20 -35 -16 0 -20
7 -20 35 0 28 4 35 20 35 16 0 20 -7 20 -35z m530 -175 c15 -28 3 -59 -25 -66
-44 -11 -74 29 -49 64 19 28 60 29 74 2z m440 5 c31 -38 -27 -96 -65 -65 -18
15 -20 51 -3 68 17 17 53 15 68 -3z m-120 -65 c0 -6 -54 -10 -141 -10 -91 0
-138 4 -134 10 4 6 62 10 141 10 83 0 134 -4 134 -10z"/>
<path d="M1020 440 c0 -5 5 -10 10 -10 6 0 10 5 10 10 0 6 -4 10 -10 10 -5 0
-10 -4 -10 -10z"/>
<path d="M1060 440 c0 -5 7 -10 15 -10 8 0 15 5 15 10 0 6 -7 10 -15 10 -8 0
-15 -4 -15 -10z"/>
<path d="M410 210 c0 -5 7 -10 15 -10 8 0 15 5 15 10 0 6 -7 10 -15 10 -8 0
-15 -4 -15 -10z"/>
<path d="M460 210 c0 -5 5 -10 10 -10 6 0 10 5 10 10 0 6 -4 10 -10 10 -5 0
-10 -4 -10 -10z"/>
<path d="M883 204 c-3 -8 -1 -20 5 -26 15 -15 43 8 35 28 -7 19 -32 18 -40 -2z"/>
<path d="M1323 204 c-3 -8 -1 -20 6 -27 14 -14 47 15 37 32 -10 16 -36 13 -43
-5z"/>
<path d="M390 1150 l0 -90 395 0 395 0 0 90 0 90 -395 0 -395 0 0 -90z m740 0
l0 -50 -345 0 -345 0 0 50 0 50 345 0 345 0 0 -50z"/>
</g>
</svg>
