<?xml version="1.0" standalone="no"?>
<!DOCTYPE svg PUBLIC "-//W3C//DTD SVG 20010904//EN"
 "http://www.w3.org/TR/2001/REC-SVG-20010904/DTD/svg10.dtd">
<svg version="1.0" xmlns="http://www.w3.org/2000/svg"
 width="176.000000pt" height="176.000000pt" viewBox="0 0 176.000000 176.000000"
 preserveAspectRatio="xMidYMid meet">

<g transform="translate(0.000000,176.000000) scale(0.100000,-0.100000)"
fill="#000000" stroke="none">
<path d="M550 1394 c-179 -113 -332 -208 -340 -212 -8 -4 -45 -27 -82 -50 -93
-60 -90 -98 7 -90 l30 3 5 -440 5 -440 94 -3 c60 -2 98 1 107 9 12 9 14 77 14
385 l0 374 495 0 495 0 2 -382 3 -383 94 -3 c60 -2 98 1 107 9 12 9 14 86 14
446 l0 434 43 -6 c46 -7 73 9 62 36 -3 8 -103 74 -223 146 -119 73 -244 150
-277 171 -120 77 -322 202 -326 201 -2 0 -150 -93 -329 -205z m620 -37 c146
-91 296 -184 333 -207 62 -39 66 -44 52 -60 -13 -14 -15 -74 -15 -443 l0 -427
-55 0 -55 0 -2 383 -3 382 -534 3 c-386 1 -538 -1 -547 -9 -11 -9 -14 -82 -14
-385 l0 -374 -55 0 -55 0 0 435 c0 372 -2 435 -15 442 -10 6 38 41 177 128
376 236 493 305 508 301 8 -2 134 -78 280 -169z"/>
<path d="M697 1314 c-14 -14 -7 -44 11 -45 93 -4 345 -3 353 2 6 3 9 15 7 25
-3 18 -16 19 -184 22 -99 1 -183 -1 -187 -4z"/>
<path d="M584 1195 c-4 -8 -4 -22 0 -30 5 -13 44 -15 298 -13 l293 3 0 25 0
25 -293 3 c-254 2 -293 0 -298 -13z"/>
<path d="M865 820 l-90 -5 -3 -117 c-1 -65 -6 -118 -11 -118 -5 0 -35 12 -67
26 l-58 26 -98 -42 -99 -42 3 -125 3 -125 90 -39 c50 -21 95 -39 101 -39 5 0
28 8 50 19 70 33 82 35 86 9 3 -23 4 -23 187 -26 141 -2 186 1 193 10 10 16
10 559 0 574 -9 14 -162 21 -287 14z m17 -102 c3 -52 3 -53 33 -50 51 5 69 4
98 -3 24 -7 27 -5 27 18 0 59 12 87 36 87 24 0 24 -1 24 -110 l0 -110 -135 0
-135 0 0 110 0 110 24 0 c23 0 25 -4 28 -52z m113 33 c0 -9 -11 -15 -27 -15
-21 -1 -28 3 -28 17 0 14 6 18 28 15 15 -2 27 -9 27 -17z m-318 -198 c24 -10
43 -21 43 -24 0 -3 -19 -13 -42 -23 -39 -15 -45 -15 -85 0 -24 9 -43 20 -43
24 0 6 60 35 80 39 3 1 24 -7 47 -16z m203 -107 c0 -56 18 -73 57 -53 24 13
31 13 57 0 37 -19 50 -6 48 52 -2 44 -1 45 28 45 l30 0 0 -110 0 -110 -135 0
-135 0 0 94 c0 52 -3 101 -6 110 -5 13 1 16 25 16 30 0 31 -1 31 -44z m120 29
c0 -10 -10 -15 -30 -15 -20 0 -30 5 -30 15 0 10 10 15 30 15 20 0 30 -5 30
-15z m-436 -15 l46 -19 0 -76 c0 -41 -2 -75 -5 -75 -2 0 -29 11 -60 24 l-55
25 0 70 c0 81 2 82 74 51z m206 -54 l0 -74 -42 -17 c-24 -9 -49 -19 -55 -22
-10 -4 -13 14 -13 71 l0 77 43 19 c66 29 67 29 67 -54z"/>
</g>
</svg>
