<?xml version="1.0" standalone="no"?>
<!DOCTYPE svg PUBLIC "-//W3C//DTD SVG 20010904//EN"
 "http://www.w3.org/TR/2001/REC-SVG-20010904/DTD/svg10.dtd">
<svg version="1.0" xmlns="http://www.w3.org/2000/svg"
 width="140.000000pt" height="140.000000pt" viewBox="0 0 140.000000 140.000000"
 preserveAspectRatio="xMidYMid meet">

<g transform="translate(0.000000,140.000000) scale(0.100000,-0.100000)"
fill="#000000" stroke="none">
<path d="M5 1388 c-3 -7 -4 -321 -3 -698 l3 -685 535 0 535 0 3 201 2 202 157
268 c142 244 157 273 157 317 1 43 -3 52 -32 78 -25 23 -42 29 -76 29 -59 0
-84 -23 -148 -133 l-53 -92 -3 83 c-3 79 -4 83 -25 80 -21 -3 -22 -8 -27 -138
l-5 -135 -149 -255 -150 -255 -10 -100 -11 -100 -323 0 -322 0 0 645 0 645
484 3 485 2 3 -52 c3 -47 6 -53 26 -56 22 -3 23 -2 20 75 l-3 78 -533 3 c-421
2 -534 0 -537 -10z m1317 -355 c19 -17 24 -59 8 -83 -8 -13 -16 -11 -57 12
-26 14 -49 30 -50 35 -5 15 37 53 59 53 12 0 30 -7 40 -17z m-76 -119 c24 -14
44 -28 44 -30 0 -14 -394 -684 -402 -684 -5 0 -29 12 -54 26 l-44 26 32 57
c189 331 365 631 371 631 5 0 28 -12 53 -26z m-219 -861 c-3 -2 -51 -2 -108
-1 l-104 3 56 42 c44 33 67 60 105 129 l49 87 3 -128 c1 -70 1 -130 -1 -132z
m-207 118 l31 -18 -41 -33 c-22 -18 -42 -31 -44 -29 -6 9 7 99 15 99 5 0 22
-8 39 -19z"/>
<path d="M1037 1164 c-13 -13 -7 -42 10 -48 21 -8 36 6 31 30 -3 19 -29 30
-41 18z"/>
<path d="M244 1095 c-13 -33 6 -35 301 -35 240 0 294 3 298 14 13 33 -14 36
-305 36 -243 0 -290 -2 -294 -15z"/>
<path d="M252 951 c-8 -5 -12 -17 -10 -27 3 -18 19 -19 294 -22 250 -2 293 0
304 13 10 12 10 18 0 30 -11 13 -56 15 -294 15 -154 0 -287 -4 -294 -9z"/>
<path d="M244 785 c-11 -29 7 -35 110 -35 102 0 130 8 119 36 -8 21 -221 20
-229 -1z"/>
<path d="M594 785 c-12 -29 7 -35 120 -35 112 0 140 8 129 36 -8 21 -241 20
-249 -1z"/>
<path d="M244 635 c-13 -33 6 -35 301 -35 240 0 294 3 298 14 13 33 -14 36
-305 36 -243 0 -290 -2 -294 -15z"/>
<path d="M247 494 c-4 -4 -7 -15 -7 -25 0 -24 29 -31 115 -27 67 3 70 4 70 28
0 24 -2 25 -85 28 -47 1 -89 0 -93 -4z"/>
<path d="M510 485 c-10 -12 -10 -18 0 -30 9 -11 35 -15 105 -15 70 0 96 4 105
15 10 12 10 18 0 30 -9 11 -35 15 -105 15 -70 0 -96 -4 -105 -15z"/>
<path d="M243 324 c-11 -29 13 -35 148 -32 130 3 134 4 137 26 3 22 3 22 -138
22 -118 0 -142 -2 -147 -16z"/>
</g>
</svg>
