<?xml version="1.0" standalone="no"?>
<!DOCTYPE svg PUBLIC "-//W3C//DTD SVG 20010904//EN"
 "http://www.w3.org/TR/2001/REC-SVG-20010904/DTD/svg10.dtd">
<svg version="1.0" xmlns="http://www.w3.org/2000/svg"
 width="164.000000pt" height="164.000000pt" viewBox="0 0 164.000000 164.000000"
 preserveAspectRatio="xMidYMid meet">

<g transform="translate(0.000000,164.000000) scale(0.100000,-0.100000)"
fill="#000000" stroke="none">
<path d="M867 1626 c-3 -8 4 -22 15 -33 65 -58 63 -128 -5 -196 -19 -19 -18
-20 15 -54 28 -29 33 -41 33 -83 0 -42 -5 -54 -34 -84 -34 -35 -35 -56 -2 -56
35 0 91 87 91 143 0 13 -11 45 -24 72 -25 48 -25 49 -6 72 29 37 35 101 15
151 -25 62 -85 104 -98 68z"/>
<path d="M685 1390 c-4 -6 7 -26 23 -45 52 -59 50 -119 -5 -177 -26 -28 -24
-48 6 -48 19 0 51 31 70 67 16 32 14 110 -5 149 -24 51 -73 80 -89 54z"/>
<path d="M1035 1390 c-4 -6 7 -26 24 -45 53 -61 53 -116 -1 -172 -31 -32 -31
-53 2 -53 24 0 67 52 81 98 8 28 8 49 -1 81 -18 67 -84 124 -105 91z"/>
<path d="M359 979 c-7 -14 -10 -86 -7 -222 l3 -202 -36 -1 c-36 -2 -99 -28
-99 -42 0 -4 4 -13 9 -21 8 -13 15 -12 49 3 22 10 45 17 51 15 6 -2 -9 -35
-35 -72 -44 -66 -50 -97 -21 -97 8 0 36 33 62 73 47 70 49 71 56 45 14 -53
-11 -120 -62 -162 -38 -32 -114 -37 -135 -8 -18 23 -17 75 1 118 16 38 13 54
-10 54 -33 0 -65 -113 -46 -162 10 -27 9 -28 -22 -28 -18 0 -38 -5 -45 -12
-16 -16 -15 -73 1 -86 6 -5 91 -25 187 -44 l175 -33 5 -45 5 -45 370 0 370 0
3 45 3 46 182 34 182 35 0 50 0 50 -125 3 c-128 2 -157 -4 -147 -32 5 -13 25
-16 117 -16 60 0 110 -4 110 -8 0 -4 -78 -22 -172 -40 l-173 -32 -354 0 -354
0 -166 31 c-91 17 -170 35 -176 40 -5 5 232 9 553 9 507 0 563 2 569 16 9 25
-16 34 -94 34 l-72 0 58 55 c32 30 66 70 76 89 17 31 21 33 49 25 118 -34 254
34 304 150 23 55 20 148 -7 204 -41 84 -140 147 -230 147 -30 0 -39 6 -53 30
l-18 31 -82 -3 c-66 -2 -83 -6 -83 -18 0 -11 17 -16 70 -20 63 -5 70 -7 73
-27 l3 -23 -415 0 -416 0 0 25 0 25 317 2 c293 3 318 4 321 21 3 16 -18 17
-332 17 -330 0 -335 0 -347 -21z m1046 -108 c83 -37 134 -129 120 -217 -7 -51
-36 -96 -88 -138 -31 -25 -49 -31 -103 -34 -73 -5 -88 3 -79 40 6 23 10 24 58
20 42 -3 58 1 86 20 40 27 71 81 71 123 -1 73 -76 145 -152 145 -36 0 -38 2
-38 30 0 29 2 30 43 30 23 0 60 -9 82 -19z m-175 -126 c0 -62 -5 -138 -11
-167 -25 -116 -101 -220 -204 -279 -49 -28 -52 -29 -209 -29 -147 0 -158 1
-150 18 4 9 9 33 12 53 3 30 -2 43 -28 72 -37 43 -84 60 -147 55 -46 -3 -46
-3 -67 42 -17 38 -21 69 -24 198 l-4 152 416 0 416 0 0 -115z m161 6 c37 -37
39 -88 7 -126 -44 -49 -137 -51 -124 -2 3 12 6 52 6 90 l0 67 41 0 c31 0 47
-6 70 -29z m-808 -350 c16 -10 25 -21 20 -24 -4 -2 -41 -10 -81 -18 -73 -12
-96 -29 -74 -51 7 -7 34 -5 87 6 42 9 79 16 81 16 10 0 2 -18 -16 -38 -19 -20
-31 -22 -121 -22 l-99 0 24 38 c14 20 28 51 32 67 10 44 11 45 67 45 34 0 62
-7 80 -19z m557 -331 c0 -20 -7 -20 -330 -20 -323 0 -330 0 -330 20 0 20 7 20
330 20 323 0 330 0 330 -20z"/>
</g>
</svg>
