<?xml version="1.0" standalone="no"?>
<!DOCTYPE svg PUBLIC "-//W3C//DTD SVG 20010904//EN"
 "http://www.w3.org/TR/2001/REC-SVG-20010904/DTD/svg10.dtd">
<svg version="1.0" xmlns="http://www.w3.org/2000/svg"
 width="145.000000pt" height="145.000000pt" viewBox="0 0 145.000000 145.000000"
 preserveAspectRatio="xMidYMid meet">

<g transform="translate(0.000000,145.000000) scale(0.100000,-0.100000)"
fill="#000000" stroke="none">
<path d="M696 1434 c-21 -20 -21 -78 0 -98 35 -36 74 -9 74 53 0 31 -22 61
-45 61 -7 0 -21 -7 -29 -16z"/>
<path d="M437 1333 c-15 -14 -6 -61 16 -81 36 -34 87 -24 87 17 0 38 -80 88
-103 64z"/>
<path d="M937 1312 c-29 -31 -34 -51 -15 -70 19 -19 53 -14 75 11 31 34 35 45
23 67 -15 28 -52 25 -83 -8z"/>
<path d="M640 1198 c-64 -33 -92 -84 -88 -164 3 -48 10 -69 30 -96 71 -94 215
-94 286 0 38 49 42 141 10 197 -47 80 -149 107 -238 63z"/>
<path d="M338 1079 c-21 -12 -24 -49 -6 -67 30 -30 118 -5 118 33 0 38 -70 59
-112 34z"/>
<path d="M1017 1072 c-21 -23 -21 -36 -1 -56 18 -19 85 -21 102 -4 18 18 14
56 -7 68 -30 16 -76 12 -94 -8z"/>
<path d="M451 825 c-32 -37 -32 -58 0 -76 21 -11 32 -7 67 24 24 22 29 56 10
75 -21 21 -45 13 -77 -23z"/>
<path d="M920 844 c-28 -32 33 -114 73 -98 37 14 39 41 6 79 -34 38 -59 44
-79 19z"/>
<path d="M697 752 c-33 -36 -15 -112 26 -112 33 0 47 19 47 61 0 60 -40 88
-73 51z"/>
<path d="M119 517 c-78 -41 -124 -174 -105 -301 l7 -46 42 0 c46 0 40 -7 154
202 35 63 44 133 21 156 -19 19 -71 14 -119 -11z"/>
<path d="M642 523 c-78 -38 -115 -127 -110 -265 l3 -83 40 -3 41 -3 62 104
c34 57 68 120 77 140 18 44 20 98 3 115 -17 17 -77 15 -116 -5z"/>
<path d="M1170 529 c-42 -17 -89 -70 -104 -118 -21 -65 -29 -141 -21 -195 l7
-46 42 0 c39 0 43 3 64 43 12 23 40 71 62 107 51 81 75 157 61 194 -9 22 -16
26 -48 25 -21 0 -49 -5 -63 -10z"/>
<path d="M336 448 c-8 -53 -40 -123 -95 -208 l-42 -65 97 -3 c53 -1 99 0 103
3 3 4 5 48 5 98 -1 91 -16 153 -47 198 -14 19 -15 17 -21 -23z"/>
<path d="M850 465 c0 -53 -19 -100 -75 -193 -30 -50 -55 -94 -55 -97 0 -3 44
-4 98 -3 l97 3 3 83 c3 93 -15 174 -48 213 l-19 24 -1 -30z"/>
<path d="M1370 468 c0 -43 -35 -126 -89 -213 l-49 -80 95 -3 c53 -1 98 -1 100
2 3 3 7 33 10 68 7 78 -10 161 -42 213 -23 39 -24 39 -25 13z"/>
<path d="M19 72 c-22 -15 -25 -42 -7 -60 17 -17 1409 -17 1426 0 16 16 15 43
-2 57 -21 18 -1392 21 -1417 3z"/>
</g>
</svg>
