<?xml version="1.0" standalone="no"?>
<!DOCTYPE svg PUBLIC "-//W3C//DTD SVG 20010904//EN"
 "http://www.w3.org/TR/2001/REC-SVG-20010904/DTD/svg10.dtd">
<svg version="1.0" xmlns="http://www.w3.org/2000/svg"
 width="150.000000pt" height="150.000000pt" viewBox="0 0 150.000000 150.000000"
 preserveAspectRatio="xMidYMid meet">

<g transform="translate(0.000000,150.000000) scale(0.100000,-0.100000)"
fill="#000000" stroke="none">
<path d="M691 1474 c-17 -14 -31 -34 -31 -45 0 -12 -7 -19 -18 -19 -20 0 -52
-31 -71 -67 -6 -13 -18 -23 -25 -23 -15 0 -56 -42 -56 -58 0 -6 -13 -18 -29
-27 -16 -8 -38 -26 -49 -40 -18 -23 -26 -25 -99 -25 -48 0 -84 -5 -91 -12 -7
-7 -12 -34 -12 -61 0 -45 2 -50 29 -60 22 -8 30 -19 34 -43 15 -92 113 -226
213 -290 157 -101 371 -101 528 0 100 64 198 198 213 290 4 24 12 35 34 43 27
10 29 15 29 60 0 27 -5 54 -12 61 -7 7 -43 12 -91 12 -73 0 -81 2 -99 25 -11
14 -33 32 -49 40 -16 9 -29 21 -29 29 0 16 -39 52 -67 60 -12 4 -32 2 -43 -4
-17 -9 -19 -14 -9 -26 6 -8 21 -14 33 -14 28 0 46 -18 46 -46 0 -25 14 -37 43
-39 10 -1 23 -7 29 -13 9 -9 -61 -12 -292 -12 -231 0 -301 3 -292 12 6 6 19
12 29 13 29 2 43 14 43 39 0 28 18 46 47 46 14 0 26 7 29 18 14 46 31 67 59
72 24 4 31 11 33 33 2 16 14 34 28 43 22 15 26 15 48 0 14 -9 26 -27 28 -43 3
-24 9 -29 46 -36 24 -5 47 -6 50 -2 11 10 -14 40 -37 43 -13 2 -21 11 -21 22
0 26 -56 70 -90 70 -16 0 -42 -11 -59 -26z m559 -374 c0 -20 -7 -20 -500 -20
-493 0 -500 0 -500 20 0 20 7 20 500 20 493 0 500 0 500 -20z m-871 -86 c-8
-10 -15 -11 -30 -1 -28 17 -23 24 11 19 24 -3 28 -7 19 -18z m777 7 c-15 -17
-21 -18 -37 -8 -18 11 -17 12 13 18 18 4 35 7 37 8 2 0 -4 -8 -13 -18z m-649
-8 c-16 -16 -18 -16 -34 0 -16 16 -15 17 17 17 32 0 33 -1 17 -17z m130 0
c-16 -16 -18 -16 -34 0 -16 16 -15 17 17 17 32 0 33 -1 17 -17z m130 0 c-16
-16 -18 -16 -34 0 -16 16 -15 17 17 17 32 0 33 -1 17 -17z m130 0 c-16 -16
-18 -16 -34 0 -16 16 -15 17 17 17 32 0 33 -1 17 -17z m142 14 c-2 -1 -11 -8
-20 -15 -13 -10 -19 -9 -29 3 -11 13 -8 15 20 15 19 0 31 -1 29 -3z m-595 -79
c-17 -17 -18 -17 -31 2 -12 17 -12 24 -2 36 10 13 14 12 31 -2 17 -16 17 -18
2 -36z m130 0 c-13 -14 -20 -15 -31 -7 -16 14 -17 31 -1 47 9 9 16 8 30 -5 17
-15 17 -17 2 -35z m129 0 c-15 -17 -17 -17 -35 -1 -17 15 -17 17 -1 35 15 17
17 17 35 1 17 -15 17 -17 1 -35z m137 18 c0 -7 -5 -17 -12 -24 -9 -9 -16 -8
-30 5 -17 15 -17 17 -2 35 13 14 20 15 31 7 7 -6 13 -17 13 -23z m119 -14
c-12 -20 -15 -20 -31 -5 -17 15 -17 17 -1 35 14 16 19 17 31 5 11 -12 12 -18
1 -35z m130 24 c17 -20 -13 -43 -34 -26 -12 10 -13 16 -4 26 6 8 15 14 19 14
4 0 13 -6 19 -14z m-709 -61 c16 -19 3 -40 -16 -24 -15 13 -19 39 -5 39 5 0
14 -7 21 -15z m130 0 c10 -12 10 -18 0 -30 -12 -14 -15 -14 -31 1 -14 13 -16
20 -8 31 15 17 24 17 39 -2z m130 -1 c11 -12 10 -18 -3 -32 -16 -15 -18 -15
-34 0 -13 14 -14 20 -3 32 7 9 16 16 20 16 4 0 13 -7 20 -16z m130 0 c11 -12
10 -18 -3 -32 -16 -15 -18 -15 -34 0 -13 14 -14 20 -3 32 7 9 16 16 20 16 4 0
13 -7 20 -16z m129 3 c8 -11 6 -18 -8 -31 -16 -15 -19 -15 -31 -1 -10 12 -10
18 0 30 15 19 24 19 39 2z m130 0 c8 -11 6 -18 -8 -31 -16 -15 -19 -15 -31 -1
-10 12 -10 18 0 30 15 19 24 19 39 2z m111 -22 c-10 -12 -16 -13 -27 -3 -13
10 -12 14 3 25 24 17 42 0 24 -22z m-695 -74 c-13 -14 -17 -14 -32 1 -14 14
-14 20 -3 33 12 14 15 14 32 -2 17 -15 17 -18 3 -32z m130 0 c-13 -14 -17 -14
-32 1 -14 14 -14 20 -3 33 12 14 15 14 32 -2 17 -15 17 -18 3 -32z m134 2
c-14 -16 -31 -17 -47 -1 -9 9 -8 16 5 30 15 17 17 17 35 2 14 -13 15 -20 7
-31z m119 0 c-14 -14 -20 -14 -33 -3 -14 12 -14 15 2 32 15 17 18 17 32 3 14
-13 14 -17 -1 -32z m130 0 c-14 -14 -20 -14 -33 -3 -14 12 -14 15 2 32 15 17
18 17 32 3 14 -13 14 -17 -1 -32z m132 31 c11 -12 10 -18 -3 -32 -16 -15 -18
-15 -34 0 -13 14 -14 20 -3 32 7 9 16 16 20 16 4 0 13 -7 20 -16z m-580 -69
c19 -23 -1 -40 -30 -25 -17 9 -19 14 -9 26 15 18 23 18 39 -1z m130 0 c10 -12
10 -18 0 -30 -12 -14 -15 -14 -31 1 -14 13 -16 20 -8 31 15 17 24 17 39 -2z
m128 2 c7 -8 6 -18 -4 -32 -13 -18 -15 -18 -31 -3 -13 14 -14 20 -3 32 15 19
24 20 38 3z m131 0 c8 -11 6 -18 -8 -31 -16 -15 -19 -15 -31 -1 -10 12 -10 18
0 30 15 19 24 19 39 2z m130 -1 c18 -21 -23 -43 -46 -25 -13 12 -13 14 3 26
23 17 29 16 43 -1z m-443 -83 c-8 -9 -46 18 -40 28 4 6 13 4 25 -7 11 -9 17
-19 15 -21z m117 -8 c-13 -9 -22 -10 -35 -2 -16 10 -16 13 -1 29 15 17 17 17
35 2 17 -16 17 -18 1 -29z m125 -2 c-14 -14 -20 -14 -33 -3 -14 12 -14 15 2
32 15 17 18 17 32 3 14 -13 14 -17 -1 -32z m127 38 c6 -11 -33 -36 -42 -27 -7
7 16 36 28 36 4 0 10 -4 14 -9z"/>
<path d="M672 1328 c-25 -25 -13 -36 38 -36 41 0 50 3 50 18 0 29 -64 42 -88
18z"/>
<path d="M818 1249 c-35 -20 -15 -59 20 -40 13 7 22 7 30 -1 8 -8 16 -8 28 3
15 12 14 15 -6 31 -25 20 -47 22 -72 7z"/>
<path d="M590 1232 c-32 -26 -19 -40 36 -38 54 1 66 17 32 40 -29 21 -41 20
-68 -2z"/>
<path d="M520 600 c0 -15 5 -20 18 -18 9 2 17 10 17 18 0 8 -8 16 -17 18 -13
2 -18 -3 -18 -18z"/>
<path d="M945 610 c-8 -14 3 -30 21 -30 8 0 14 9 14 20 0 21 -24 28 -35 10z"/>
<path d="M650 560 c0 -15 5 -20 18 -18 9 2 17 10 17 18 0 8 -8 16 -17 18 -13
2 -18 -3 -18 -18z"/>
<path d="M820 560 c0 -15 5 -20 18 -18 9 2 17 10 17 18 0 8 -8 16 -17 18 -13
2 -18 -3 -18 -18z"/>
<path d="M733 494 c-8 -21 13 -42 28 -27 13 13 5 43 -11 43 -6 0 -13 -7 -17
-16z"/>
<path d="M861 466 c-8 -10 -8 -16 2 -24 17 -14 42 2 34 22 -8 20 -21 20 -36 2z"/>
<path d="M577 453 c-3 -5 -2 -15 3 -22 10 -17 43 -6 38 12 -6 15 -34 22 -41
10z"/>
<path d="M705 380 c-8 -14 3 -30 21 -30 8 0 14 9 14 20 0 21 -24 28 -35 10z"/>
<path d="M655 291 c-22 -10 -92 -71 -155 -135 l-115 -116 -88 0 c-79 0 -88 -2
-85 -18 3 -16 37 -17 538 -17 501 0 535 1 538 17 3 16 -6 18 -85 18 l-88 0
-70 65 c-38 35 -75 64 -82 65 -31 1 -21 -27 28 -76 l53 -54 -299 0 -300 0 105
104 c113 112 155 135 224 122 19 -4 54 -22 77 -42 23 -19 47 -33 53 -31 25 8
8 42 -38 76 -41 29 -59 36 -110 38 -45 3 -72 -1 -101 -16z"/>
<path d="M755 230 c-4 -7 -3 -16 3 -22 14 -14 45 -2 40 15 -6 16 -34 21 -43 7z"/>
<path d="M713 174 c-8 -21 13 -42 28 -27 13 13 5 43 -11 43 -6 0 -13 -7 -17
-16z"/>
<path d="M823 174 c-8 -20 17 -36 34 -22 10 8 10 14 2 24 -15 18 -28 18 -36
-2z"/>
<path d="M892 123 c2 -10 10 -18 18 -18 8 0 16 8 18 18 2 12 -3 17 -18 17 -15
0 -20 -5 -18 -17z"/>
<path d="M805 100 c-8 -14 3 -30 21 -30 8 0 14 9 14 20 0 21 -24 28 -35 10z"/>
</g>
</svg>
